<?xml version="1.0" encoding="UTF-8" standalone="no"?>
<!-- Created with Inkscape (http://www.inkscape.org/) -->

<svg
   xmlns:dc="http://purl.org/dc/elements/1.1/"
   xmlns:cc="http://creativecommons.org/ns#"
   xmlns:rdf="http://www.w3.org/1999/02/22-rdf-syntax-ns#"
   xmlns:svg="http://www.w3.org/2000/svg"
   xmlns="http://www.w3.org/2000/svg"
   xmlns:sodipodi="http://sodipodi.sourceforge.net/DTD/sodipodi-0.dtd"
   xmlns:inkscape="http://www.inkscape.org/namespaces/inkscape"
   width="1000"
   height="1000"
   viewBox="0 0 264.58332 264.58334"
   version="1.1"
   id="svg3323"
   sodipodi:docname="Skoda Auto (2011) (Symbol) (Print).svg"
   inkscape:version="0.92.2 (5c3e80d, 2017-08-06)">
  <defs
     id="defs3317" />
  <sodipodi:namedview
     id="base"
     pagecolor="#ffffff"
     bordercolor="#666666"
     borderopacity="1.0"
     inkscape:pageopacity="0.0"
     inkscape:pageshadow="2"
     inkscape:zoom="0.35"
     inkscape:cx="475.01467"
     inkscape:cy="629.08292"
     inkscape:document-units="px"
     inkscape:current-layer="layer1"
     showgrid="false"
     units="px"
     inkscape:window-width="1366"
     inkscape:window-height="705"
     inkscape:window-x="-8"
     inkscape:window-y="-8"
     inkscape:window-maximized="1" />
  <metadata
     id="metadata3320">
    <rdf:RDF>
      <cc:Work
         rdf:about="">
        <dc:format>image/svg+xml</dc:format>
        <dc:type
           rdf:resource="http://purl.org/dc/dcmitype/StillImage" />
        <dc:title></dc:title>
      </cc:Work>
    </rdf:RDF>
  </metadata>
  <g
     inkscape:label="Layer 1"
     inkscape:groupmode="layer"
     id="layer1"
     transform="translate(0,-32.416658)">
    <path
       style="fill-opacity:1;fill-rule:nonzero;stroke:none;stroke-width:0.51855254"
       d="M 132.29164,32.41666 C 59.232869,32.41666 0,91.646895 0,164.70832 c 0,73.06295 59.232869,132.29167 132.29164,132.29167 73.0657,0 132.29169,-59.22872 132.29169,-132.29167 0,-73.061425 -59.22599,-132.29166 -132.29169,-132.29166 z m 0,3.319458 c 71.2326,0 128.97222,57.745899 128.97222,128.972202 0,71.2237 -57.73962,128.95707 -128.97222,128.95707 -71.227841,0 -128.972218,-57.73337 -128.972218,-128.95707 0,-71.226303 57.744377,-128.972202 128.972218,-128.972202 z"
       id="path14"
       inkscape:connector-curvature="0" />
    <path
       style="fill-opacity:1;fill-rule:nonzero;stroke:none;stroke-width:0.51855254"
       d="m 132.29164,44.820912 c -66.208238,0 -119.88741,53.674489 -119.88741,119.887408 0,66.21031 53.679172,119.87228 119.88741,119.87228 66.20885,0 119.88746,-53.66197 119.88746,-119.87228 0,-66.212919 -53.67861,-119.887408 -119.88746,-119.887408 z m 0,10.61164 c 60.35493,0 109.27585,48.927138 109.27585,109.275768 0,60.35222 -48.92092,109.26821 -109.27585,109.26821 -60.354299,0 -109.268218,-48.91599 -109.268218,-109.26821 0,-60.34863 48.913919,-109.275768 109.268218,-109.275768 z"
       id="path18"
       inkscape:connector-curvature="0" />
    <path
       style="fill-opacity:1;fill-rule:nonzero;stroke:none;stroke-width:0.51855254"
       d="m 132.84615,67.365741 c -9.76959,0 -19.19296,1.437546 -28.09754,4.109392 -3.3358,1.007355 -2.83904,3.329091 -1.00265,4.907006 8.88031,7.601958 20.92767,19.013717 29.23693,33.278141 -5.26286,0.5078 -9.2836,-2.4189 -12.66249,-5.65152 C 109.2146,93.434952 97.654004,85.911559 88.470454,80.749825 c -1.600307,-0.895887 -3.169382,-1.268829 -4.755102,-0.357804 -10.122276,5.8867 -16.945701,11.415611 -24.9832,20.737089 -1.365547,1.58633 -0.474643,2.82117 0.865954,3.53209 8.783165,4.65655 22.541052,13.49859 35.154208,24.97555 -2.57251,2.16348 -6.651371,1.4509 -12.55618,-1.64823 -11.351517,-5.96555 -22.26006,-9.39524 -30.589012,-11.53836 -1.782862,-0.45964 -3.698926,0.0413 -4.618358,1.63311 -5.331667,9.26506 -9.008076,20.34942 -10.748313,31.59164 -0.33368,2.15714 1.13563,4.06878 3.28905,4.44379 19.40889,3.39652 54.010993,12.52563 59.757633,52.38942 0.49679,3.48982 -2.67818,6.55292 -6.85921,4.58801 -5.835814,-2.73005 -11.658484,-5.45404 -17.485939,-8.18849 -0.611487,-0.28349 -1.314023,-0.52432 -1.982569,-0.52432 H 45.461953 c -3.905243,0 -5.512393,3.73603 -2.970022,6.64649 6.611664,7.61656 12.672737,15.82486 17.858172,24.53506 0.460081,0.77066 0.986135,1.07204 1.883784,1.07204 h 12.001666 c 0.817266,0 1.514821,-0.19267 2.218016,-0.60689 3.773406,-2.21371 7.545874,-4.41916 11.325616,-6.63149 0.701129,-0.41424 1.399009,-0.40322 2.218019,-0.40322 H 180.473 c 1.21557,0 2.19523,0.77479 2.19523,1.99008 v 4.45879 c 0,1.61494 1.45301,2.84729 3.05361,2.5978 11.21173,-1.78641 21.4993,-6.91209 29.66229,-14.56897 1.29651,-1.21103 1.29651,-3.26895 0,-4.4742 -8.16299,-7.66308 -18.45056,-12.79013 -29.66229,-14.57668 -1.60016,-0.24908 -3.05361,0.98947 -3.05361,2.6055 v 4.0714 c 0,1.20965 -0.91915,2.58267 -2.13448,2.58267 -0.88199,0 -1.76233,0.0138 -2.6434,0 -3.12946,-0.0413 -3.69673,-3.8954 -3.06878,-6.16043 6.66443,-23.89581 8.29211,-38.39487 8.21126,-48.94845 -0.0881,-11.22213 -0.36207,-22.39263 -5.41594,-37.18989 -4.87189,-14.23374 -9.31777,-28.16939 -32.84502,-49.472653 -1.60014,-1.440573 -3.20773,-2.147511 -5.36278,-2.301642 -2.31321,-0.161012 -4.21137,-0.242206 -6.56294,-0.242206 z m 17.09859,108.615069 c 6.73541,0 12.19916,5.45226 12.19916,12.19136 0,6.7252 -5.46375,12.19163 -12.19916,12.19163 -6.73502,0 -12.18399,-5.46643 -12.18399,-12.19163 0,-6.7391 5.44897,-12.19136 12.18399,-12.19136 z"
       id="path22"
       inkscape:connector-curvature="0" />
  </g>
</svg>
